<svg width="200" height="200" viewBox="0 0 200 200" fill="none" xmlns="http://www.w3.org/2000/svg">
<rect width="200" height="200" rx="48" fill="url(#paint0_linear_37_2930)"/>
<path d="M139.133 79.3701L134.416 82.2472C131.757 77.981 128.207 74.5683 123.766 72.0091C119.379 69.3999 114.557 67.9995 109.3 67.8081C100.764 67.4973 93.367 70.2508 87.1094 76.0686C80.8519 81.8864 77.5678 89.0633 77.257 97.5994C76.9461 106.135 79.6997 113.532 85.5175 119.79C91.3353 126.047 98.5122 129.331 107.048 129.642C112.305 129.834 117.216 128.788 121.782 126.504C126.399 124.223 130.189 121.051 133.151 116.99L137.56 120.434C134.05 125.205 129.589 128.925 124.176 131.595C118.763 134.264 112.985 135.487 106.844 135.263C101.899 135.083 97.1975 133.948 92.7394 131.857C88.3333 129.768 84.5504 127.025 81.3908 123.626C78.2311 120.228 75.7698 116.256 74.007 111.709C72.2461 107.111 71.4556 102.339 71.6357 97.3947C71.8157 92.45 72.9502 87.7747 75.0389 83.3686C77.1296 78.9105 79.8742 75.1016 83.2727 71.9419C86.6712 68.7822 90.6436 66.321 95.1899 64.5581C99.7883 62.7972 104.56 62.0068 109.504 62.1868C115.698 62.4123 121.397 64.0791 126.599 67.1872C131.804 70.2432 135.982 74.3041 139.133 79.3701ZM148.657 73.3064L143.862 76.1806C140.215 70.4191 135.38 65.787 129.358 62.2843C123.389 58.7314 116.84 56.8252 109.709 56.5655C102.058 56.2869 94.9361 57.9299 88.3437 61.4945C81.7532 65.007 76.4407 69.9211 72.4061 76.2368C68.4236 82.5544 66.293 89.5388 66.0144 97.19C65.7358 104.841 67.3528 111.962 70.8653 118.553C74.4298 125.145 79.37 130.458 85.6857 134.493C92.0033 138.476 98.9877 140.606 106.639 140.885C113.77 141.144 120.466 139.72 126.729 136.613C132.993 133.505 138.153 129.185 142.211 123.652L146.701 127.021C142.094 133.316 136.235 138.21 129.124 141.703C122.065 145.199 114.502 146.8 106.434 146.506C97.7941 146.191 89.8823 143.766 82.6988 139.231C75.5153 134.696 69.9232 128.681 65.9224 121.187C61.9216 113.693 60.0785 105.625 60.3931 96.9853C60.7077 88.3452 63.1327 80.4334 67.6679 73.2499C72.2031 66.0664 78.2179 60.4743 85.7122 56.4735C93.2065 52.4728 101.274 50.6297 109.914 50.9443C117.981 51.238 125.408 53.3847 132.194 57.3843C139.032 61.3857 144.52 66.6931 148.657 73.3064ZM158.253 67.4016L153.458 70.2759C148.827 62.915 142.683 57.0105 135.028 52.5623C127.426 48.064 119.123 45.6509 110.118 45.323C102.884 45.0596 95.91 46.2128 89.1975 48.7828C82.4849 51.3527 76.6472 54.9448 71.6844 59.5589C66.7755 64.1229 62.7953 69.6588 59.744 76.1666C56.6927 82.6745 55.0353 89.5458 54.7719 96.7806C54.5084 104.015 55.6617 110.989 58.2316 117.702C60.8016 124.414 64.3676 130.251 68.9297 135.212C73.5457 140.123 79.1077 144.104 85.6155 147.155C92.1234 150.206 98.9947 151.864 106.229 152.127C115.286 152.457 123.769 150.655 131.677 146.722C139.586 142.788 146.118 137.319 151.272 130.314L155.678 133.836C149.977 141.551 142.748 147.568 133.991 151.887C125.288 156.157 115.966 158.11 106.025 157.748C95.3548 157.36 85.5873 154.372 76.7222 148.786C67.859 143.147 60.9378 135.703 55.9586 126.453C51.0314 117.205 48.7621 107.246 49.1506 96.5759C49.5391 85.9059 52.5267 76.1384 58.1134 67.2733C63.7522 58.4101 71.1955 51.5149 80.4434 46.5878C89.6932 41.6086 99.6531 39.3132 110.323 39.7017C120.317 40.0656 129.522 42.7461 137.939 47.7432C146.359 52.6882 153.13 59.2411 158.253 67.4016ZM167.699 61.3351L162.904 64.2094C157.287 55.3012 149.86 48.1512 140.623 42.7594C131.438 37.3695 121.406 34.4765 110.528 34.0804C101.784 33.762 93.3412 35.1745 85.2006 38.3179C77.1139 41.4111 70.0767 45.7412 64.0889 51.3083C58.1011 56.8753 53.2437 63.6041 49.5166 71.4945C45.8435 79.3348 43.8477 87.6271 43.5293 96.3713C43.2109 105.115 44.5974 113.557 47.6887 121.696C50.834 129.784 55.1901 136.822 60.7572 142.81C66.3242 148.798 73.0269 153.654 80.8653 157.38C88.7577 161.055 97.0759 163.051 105.82 163.37C116.698 163.766 126.941 161.585 136.547 156.827C146.154 152.07 154.082 145.453 160.332 136.976L164.735 140.577C157.94 149.71 149.341 156.85 138.939 161.996C128.538 167.09 117.431 169.421 105.615 168.991C96.0905 168.644 87.0502 166.439 78.4945 162.375C69.9889 158.365 62.7009 153.122 56.6304 146.647C50.6139 140.122 45.8892 132.471 42.4563 123.694C39.0773 114.867 37.5612 105.692 37.908 96.1666C38.2549 86.6416 40.4333 77.6264 44.4434 69.1209C48.5074 60.5651 53.776 53.2781 60.2493 47.2596C66.7766 41.1911 74.4275 36.4663 83.2022 33.0855C92.0308 29.6544 101.208 28.1123 110.732 28.4592C122.6 28.8913 133.534 32.0516 143.534 37.9403C153.535 43.8289 161.59 51.6272 167.699 61.3351Z" fill="white"/>
<defs>
<linearGradient id="paint0_linear_37_2930" x1="100" y1="0" x2="100" y2="200" gradientUnits="userSpaceOnUse">
<stop stop-color="#644FE3"/>
<stop offset="1" stop-color="#4D68E6"/>
</linearGradient>
</defs>
</svg>
