<svg width="457" height="71" viewBox="0 0 457 71" fill="none" xmlns="http://www.w3.org/2000/svg">
<path d="M21.2502 35.3125H38.2033C40.7814 35.3125 42.9559 34.4792 44.7268 32.8125C46.5236 31.1458 47.4221 28.776 47.4221 25.7031C47.4221 23.4375 46.4846 21.4062 44.6096 19.6094C42.7346 17.7865 40.5992 16.875 38.2033 16.875H14.0627V67.5H11.2502V14.0625H38.2033C41.3804 14.0625 44.1799 15.2474 46.6018 17.6172C49.0236 19.9609 50.2346 22.6562 50.2346 25.7031C50.2346 29.4531 49.0627 32.4609 46.7189 34.7266C44.3752 36.9922 41.5367 38.125 38.2033 38.125H21.2502V35.3125ZM21.2502 40.9375H38.2033C42.2658 40.9375 45.7554 39.5182 48.6721 36.6797C51.5887 33.8151 53.0471 30.1562 53.0471 25.7031C53.0471 21.875 51.5497 18.5156 48.5549 15.625C45.5861 12.7083 42.1356 11.25 38.2033 11.25H8.4377V67.5H5.6252V8.4375H38.2033C41.3023 8.4375 44.2059 9.23177 46.9143 10.8203C49.6486 12.4089 51.8231 14.5443 53.4377 17.2266C55.0523 19.8828 55.8596 22.7083 55.8596 25.7031C55.8596 30.8333 54.1148 35.1302 50.6252 38.5938C47.1617 42.0312 43.021 43.75 38.2033 43.75H21.2502V40.9375ZM21.2502 46.5625H38.2033C41.8492 46.5625 45.2346 45.6641 48.3596 43.8672C51.4846 42.0703 53.9846 39.5703 55.8596 36.3672C57.7346 33.138 58.6721 29.5833 58.6721 25.7031C58.6721 22.1875 57.7346 18.8932 55.8596 15.8203C54.0106 12.7214 51.5106 10.2474 48.3596 8.39844C45.2085 6.54948 41.8231 5.625 38.2033 5.625H2.8127V67.5H0.000198364V2.8125H38.2033C42.2919 2.8125 46.133 3.86719 49.7268 5.97656C53.3205 8.0599 56.1721 10.8724 58.2814 14.4141C60.4169 17.9297 61.4846 21.6927 61.4846 25.7031C61.4846 30.3385 60.482 34.4141 58.4768 37.9297C56.4976 41.4453 53.8023 44.1927 50.3908 46.1719L57.6564 67.5H54.6877L47.7346 47.5C46.6929 47.9167 45.8986 48.2031 45.3518 48.3594L51.8752 67.5H48.9064L42.5393 49.0234C42.3049 49.0755 41.4716 49.1667 40.0393 49.2969L46.0939 67.5H43.1252L37.1486 49.375H34.6096L40.3127 67.5H37.3439L31.6018 49.375H21.2502V46.5625ZM19.6877 67.5H16.8752V19.6875H38.2033C39.9481 19.6875 41.4455 20.2865 42.6955 21.4844C43.9716 22.6562 44.6096 24.0625 44.6096 25.7031C44.6096 30.2344 42.4742 32.5 38.2033 32.5H21.2502V29.6875H38.2033C39.3231 29.6875 40.1955 29.401 40.8205 28.8281C41.4716 28.2292 41.7971 27.1875 41.7971 25.7031C41.7971 24.7917 41.4455 24.0365 40.7424 23.4375C40.0653 22.8125 39.2189 22.5 38.2033 22.5H19.6877V67.5ZM105.525 39.0625V2.8125H108.338V39.0625C108.338 43.0208 106.775 46.4062 103.65 49.2188C100.525 52.0312 96.7752 53.4375 92.4002 53.4375C88.0252 53.4375 84.2752 52.0312 81.1502 49.2188C78.0252 46.4062 76.4627 43.0208 76.4627 39.0625V2.8125H79.2752V39.0625C79.2752 42.2396 80.5512 44.9609 83.1033 47.2266C85.6814 49.4922 88.7804 50.625 92.4002 50.625C96.02 50.625 99.1059 49.4922 101.658 47.2266C104.236 44.9609 105.525 42.2396 105.525 39.0625ZM111.15 39.0625V2.8125H113.963V39.0625C113.963 41.7708 113.39 44.362 112.244 46.8359C111.098 49.2839 109.562 51.4062 107.635 53.2031C105.707 55 103.416 56.4323 100.76 57.5C98.1033 58.5417 95.3169 59.0625 92.4002 59.0625C89.4835 59.0625 86.6971 58.5417 84.0408 57.5C81.3846 56.4323 79.0929 55 77.1658 53.2031C75.2387 51.4062 73.7023 49.2839 72.5564 46.8359C71.4106 44.362 70.8377 41.7708 70.8377 39.0625V2.8125H73.6502V39.0625C73.6502 42.1615 74.4835 45.0391 76.1502 47.6953C77.8429 50.3255 80.1216 52.4089 82.9861 53.9453C85.8768 55.4818 89.0148 56.25 92.4002 56.25C95.7856 56.25 98.9106 55.4818 101.775 53.9453C104.666 52.4089 106.944 50.3255 108.611 47.6953C110.304 45.0391 111.15 42.1615 111.15 39.0625ZM116.775 39.0625V2.8125H119.588V39.0625C119.588 42.526 118.859 45.8464 117.4 49.0234C115.968 52.1745 114.041 54.8958 111.619 57.1875C109.197 59.4792 106.306 61.3021 102.947 62.6562C99.5877 64.0104 96.0721 64.6875 92.4002 64.6875C88.7283 64.6875 85.2127 64.0104 81.8533 62.6562C78.4939 61.3021 75.6033 59.4792 73.1814 57.1875C70.7596 54.8958 68.8195 52.1745 67.3611 49.0234C65.9288 45.8464 65.2127 42.526 65.2127 39.0625V2.8125H68.0252V39.0625C68.0252 43.1771 69.1189 46.9922 71.3064 50.5078C73.4939 53.9974 76.4497 56.7708 80.1736 58.8281C83.9236 60.8594 87.9992 61.875 92.4002 61.875C96.8012 61.875 100.864 60.8594 104.588 58.8281C108.338 56.7708 111.306 53.9974 113.494 50.5078C115.681 46.9922 116.775 43.1771 116.775 39.0625ZM122.4 39.0625V2.8125H125.213V39.0625C125.213 44.6875 123.741 49.9089 120.799 54.7266C117.856 59.5182 113.859 63.3203 108.806 66.1328C103.78 68.9193 98.3117 70.3125 92.4002 70.3125C86.4887 70.3125 81.007 68.9193 75.9549 66.1328C70.9288 63.3203 66.9445 59.5182 64.0018 54.7266C61.0591 49.9089 59.5877 44.6875 59.5877 39.0625V2.8125H62.4002V39.0625C62.4002 42.8906 63.1945 46.5625 64.783 50.0781C66.3716 53.5938 68.507 56.6276 71.1893 59.1797C73.8716 61.7057 77.0617 63.724 80.7596 65.2344C84.4835 66.7448 88.3637 67.5 92.4002 67.5C96.4367 67.5 100.304 66.7448 104.002 65.2344C107.726 63.724 110.929 61.7057 113.611 59.1797C116.293 56.6276 118.429 53.5938 120.017 50.0781C121.606 46.5625 122.4 42.8906 122.4 39.0625ZM134.8 2.8125H137.613V67.5H134.8V2.8125ZM151.675 2.8125H154.488V53.4375H176.988V56.25H154.488V59.0625H176.988V61.875H154.488V64.6875H176.988V67.5H151.675V2.8125ZM146.05 2.8125H148.863V67.5H146.05V2.8125ZM140.425 2.8125H143.238V67.5H140.425V2.8125ZM234.466 24.9219L232.161 26.4453C230.755 24.362 228.919 22.7214 226.653 21.5234C224.414 20.2995 221.979 19.6875 219.349 19.6875C215.078 19.6875 211.432 21.1979 208.411 24.2188C205.39 27.2396 203.88 30.8854 203.88 35.1562C203.88 39.4271 205.39 43.0729 208.411 46.0938C211.432 49.1146 215.078 50.625 219.349 50.625C221.979 50.625 224.414 50.013 226.653 48.7891C228.919 47.5651 230.755 45.9115 232.161 43.8281L234.427 45.4688C232.76 47.9167 230.599 49.8568 227.942 51.2891C225.286 52.7214 222.422 53.4375 219.349 53.4375C216.875 53.4375 214.505 52.9557 212.239 51.9922C210 51.0286 208.06 49.7266 206.419 48.0859C204.778 46.4453 203.476 44.5052 202.513 42.2656C201.549 40 201.067 37.6302 201.067 35.1562C201.067 32.6823 201.549 30.3255 202.513 28.0859C203.476 25.8203 204.778 23.8672 206.419 22.2266C208.06 20.5859 210 19.2839 212.239 18.3203C214.505 17.3568 216.875 16.875 219.349 16.875C222.448 16.875 225.325 17.6042 227.981 19.0625C230.638 20.4948 232.799 22.4479 234.466 24.9219ZM239.114 21.7188L236.771 23.2422C234.843 20.4297 232.343 18.2031 229.271 16.5625C226.224 14.8958 222.916 14.0625 219.349 14.0625C215.521 14.0625 211.992 15.013 208.763 16.9141C205.534 18.7891 202.968 21.3411 201.067 24.5703C199.192 27.7995 198.255 31.3281 198.255 35.1562C198.255 38.9844 199.192 42.513 201.067 45.7422C202.968 48.9714 205.534 51.5365 208.763 53.4375C211.992 55.3125 215.521 56.25 219.349 56.25C222.916 56.25 226.237 55.4167 229.31 53.75C232.382 52.0833 234.882 49.8307 236.81 46.9922L239.114 48.5938C236.927 51.8229 234.088 54.375 230.599 56.25C227.135 58.125 223.385 59.0625 219.349 59.0625C215.026 59.0625 211.028 57.9948 207.356 55.8594C203.685 53.724 200.781 50.8203 198.646 47.1484C196.51 43.4766 195.442 39.4792 195.442 35.1562C195.442 30.8333 196.51 26.8359 198.646 23.1641C200.781 19.4922 203.685 16.5885 207.356 14.4531C211.028 12.3177 215.026 11.25 219.349 11.25C223.385 11.25 227.135 12.1875 230.599 14.0625C234.088 15.9375 236.927 18.4896 239.114 21.7188ZM243.802 18.5938L241.458 20.1172C239.01 16.5234 235.833 13.6849 231.927 11.6016C228.047 9.49219 223.854 8.4375 219.349 8.4375C215.729 8.4375 212.265 9.14062 208.958 10.5469C205.651 11.9531 202.799 13.8542 200.403 16.25C198.034 18.6198 196.146 21.4583 194.739 24.7656C193.333 28.0729 192.63 31.5365 192.63 35.1562C192.63 38.776 193.333 42.2396 194.739 45.5469C196.146 48.8542 198.034 51.7057 200.403 54.1016C202.799 56.4714 205.651 58.3594 208.958 59.7656C212.265 61.1719 215.729 61.875 219.349 61.875C223.88 61.875 228.086 60.8203 231.966 58.7109C235.846 56.6016 239.01 53.75 241.458 50.1562L243.724 51.8359C241.015 55.7943 237.513 58.9323 233.216 61.25C228.945 63.5417 224.323 64.6875 219.349 64.6875C214.01 64.6875 209.075 63.3724 204.544 60.7422C200.013 58.0859 196.419 54.4922 193.763 49.9609C191.132 45.4297 189.817 40.4948 189.817 35.1562C189.817 29.8177 191.132 24.8828 193.763 20.3516C196.419 15.8203 200.013 12.2396 204.544 9.60938C209.075 6.95312 214.01 5.625 219.349 5.625C224.349 5.625 228.997 6.79688 233.294 9.14062C237.591 11.4583 241.093 14.6094 243.802 18.5938ZM248.411 15.3906L246.067 16.9141C243.099 12.5651 239.257 9.1276 234.544 6.60156C229.856 4.07552 224.791 2.8125 219.349 2.8125C214.974 2.8125 210.781 3.67188 206.771 5.39062C202.786 7.08333 199.349 9.375 196.458 12.2656C193.567 15.1562 191.263 18.6068 189.544 22.6172C187.851 26.6016 187.005 30.7812 187.005 35.1562C187.005 39.5312 187.851 43.724 189.544 47.7344C191.263 51.7188 193.567 55.1562 196.458 58.0469C199.349 60.9375 202.786 63.2422 206.771 64.9609C210.781 66.6536 214.974 67.5 219.349 67.5C224.791 67.5 229.869 66.224 234.583 63.6719C239.297 61.1198 243.138 57.6693 246.106 53.3203L248.372 55.0391C245.143 59.7266 240.976 63.4505 235.872 66.2109C230.768 68.9453 225.26 70.3125 219.349 70.3125C214.583 70.3125 210.026 69.375 205.677 67.5C201.354 65.651 197.617 63.1641 194.466 60.0391C191.341 56.888 188.841 53.151 186.966 48.8281C185.117 44.4792 184.192 39.9219 184.192 35.1562C184.192 30.3906 185.117 25.8464 186.966 21.5234C188.841 17.1745 191.341 13.4375 194.466 10.3125C197.617 7.16146 201.354 4.66146 205.677 2.8125C210.026 0.9375 214.583 0 219.349 0C225.286 0 230.807 1.38021 235.911 4.14062C241.015 6.90104 245.182 10.651 248.411 15.3906ZM279.014 24.2188C275.993 27.2396 274.483 30.8854 274.483 35.1562C274.483 39.4271 275.993 43.0729 279.014 46.0938C282.035 49.1146 285.681 50.625 289.952 50.625C294.223 50.625 297.868 49.1146 300.889 46.0938C303.91 43.0729 305.421 39.4271 305.421 35.1562C305.421 30.8854 303.91 27.2396 300.889 24.2188C297.868 21.1979 294.223 19.6875 289.952 19.6875C285.681 19.6875 282.035 21.1979 279.014 24.2188ZM273.116 42.2656C272.152 40 271.671 37.6302 271.671 35.1562C271.671 32.6823 272.152 30.3255 273.116 28.0859C274.079 25.8203 275.381 23.8672 277.022 22.2266C278.663 20.5859 280.603 19.2839 282.842 18.3203C285.108 17.3568 287.478 16.875 289.952 16.875C292.426 16.875 294.783 17.3568 297.022 18.3203C299.288 19.2839 301.241 20.5859 302.881 22.2266C304.522 23.8672 305.824 25.8203 306.788 28.0859C307.751 30.3255 308.233 32.6823 308.233 35.1562C308.233 37.6302 307.751 40 306.788 42.2656C305.824 44.5052 304.522 46.4453 302.881 48.0859C301.241 49.7266 299.288 51.0286 297.022 51.9922C294.783 52.9557 292.426 53.4375 289.952 53.4375C287.478 53.4375 285.108 52.9557 282.842 51.9922C280.603 51.0286 278.663 49.7266 277.022 48.0859C275.381 46.4453 274.079 44.5052 273.116 42.2656ZM271.671 24.5703C269.796 27.7995 268.858 31.3281 268.858 35.1562C268.858 38.9844 269.796 42.513 271.671 45.7422C273.572 48.9714 276.137 51.5365 279.366 53.4375C282.595 55.3125 286.124 56.25 289.952 56.25C293.78 56.25 297.309 55.3125 300.538 53.4375C303.767 51.5365 306.319 48.9714 308.194 45.7422C310.095 42.513 311.046 38.9844 311.046 35.1562C311.046 31.3281 310.095 27.7995 308.194 24.5703C306.319 21.3411 303.767 18.7891 300.538 16.9141C297.309 15.013 293.78 14.0625 289.952 14.0625C286.124 14.0625 282.595 15.013 279.366 16.9141C276.137 18.7891 273.572 21.3411 271.671 24.5703ZM269.249 47.1484C267.113 43.4766 266.046 39.4792 266.046 35.1562C266.046 30.8333 267.113 26.8359 269.249 23.1641C271.384 19.4922 274.288 16.5885 277.96 14.4531C281.631 12.3177 285.629 11.25 289.952 11.25C294.275 11.25 298.272 12.3177 301.944 14.4531C305.616 16.5885 308.519 19.4922 310.655 23.1641C312.79 26.8359 313.858 30.8333 313.858 35.1562C313.858 39.4792 312.79 43.4766 310.655 47.1484C308.519 50.8203 305.616 53.724 301.944 55.8594C298.272 57.9948 294.275 59.0625 289.952 59.0625C285.629 59.0625 281.631 57.9948 277.96 55.8594C274.288 53.724 271.384 50.8203 269.249 47.1484ZM265.342 24.7656C263.936 28.0729 263.233 31.5365 263.233 35.1562C263.233 38.776 263.936 42.2396 265.342 45.5469C266.749 48.8542 268.637 51.7057 271.006 54.1016C273.402 56.4714 276.254 58.3594 279.561 59.7656C282.868 61.1719 286.332 61.875 289.952 61.875C293.572 61.875 297.035 61.1719 300.342 59.7656C303.65 58.3594 306.488 56.4714 308.858 54.1016C311.254 51.7057 313.155 48.8542 314.561 45.5469C315.967 42.2396 316.671 38.776 316.671 35.1562C316.671 31.5365 315.967 28.0729 314.561 24.7656C313.155 21.4583 311.254 18.6198 308.858 16.25C306.488 13.8542 303.65 11.9531 300.342 10.5469C297.035 9.14062 293.572 8.4375 289.952 8.4375C286.332 8.4375 282.868 9.14062 279.561 10.5469C276.254 11.9531 273.402 13.8542 271.006 16.25C268.637 18.6198 266.749 21.4583 265.342 24.7656ZM264.366 49.9609C261.736 45.4297 260.421 40.4948 260.421 35.1562C260.421 29.8177 261.736 24.8828 264.366 20.3516C267.022 15.8203 270.616 12.2396 275.147 9.60938C279.678 6.95312 284.613 5.625 289.952 5.625C295.29 5.625 300.225 6.95312 304.756 9.60938C309.288 12.2396 312.868 15.8203 315.499 20.3516C318.155 24.8828 319.483 29.8177 319.483 35.1562C319.483 40.4948 318.155 45.4297 315.499 49.9609C312.868 54.4922 309.288 58.0859 304.756 60.7422C300.225 63.3724 295.29 64.6875 289.952 64.6875C284.613 64.6875 279.678 63.3724 275.147 60.7422C270.616 58.0859 267.022 54.4922 264.366 49.9609ZM260.147 22.6172C258.454 26.6016 257.608 30.7812 257.608 35.1562C257.608 39.5312 258.454 43.724 260.147 47.7344C261.866 51.7188 264.171 55.1562 267.061 58.0469C269.952 60.9375 273.389 63.2422 277.374 64.9609C281.384 66.6536 285.577 67.5 289.952 67.5C294.327 67.5 298.506 66.6536 302.491 64.9609C306.501 63.2422 309.952 60.9375 312.842 58.0469C315.733 55.1562 318.025 51.7188 319.717 47.7344C321.436 43.724 322.296 39.5312 322.296 35.1562C322.296 30.7812 321.436 26.6016 319.717 22.6172C318.025 18.6068 315.733 15.1562 312.842 12.2656C309.952 9.375 306.501 7.08333 302.491 5.39062C298.506 3.67188 294.327 2.8125 289.952 2.8125C285.577 2.8125 281.384 3.67188 277.374 5.39062C273.389 7.08333 269.952 9.375 267.061 12.2656C264.171 15.1562 261.866 18.6068 260.147 22.6172ZM257.569 48.8281C255.72 44.4792 254.796 39.9219 254.796 35.1562C254.796 30.3906 255.72 25.8464 257.569 21.5234C259.444 17.1745 261.944 13.4375 265.069 10.3125C268.22 7.16146 271.957 4.66146 276.28 2.8125C280.629 0.9375 285.186 0 289.952 0C294.717 0 299.262 0.9375 303.585 2.8125C307.934 4.66146 311.671 7.16146 314.796 10.3125C317.947 13.4375 320.447 17.1745 322.296 21.5234C324.171 25.8464 325.108 30.3906 325.108 35.1562C325.108 39.9219 324.171 44.4792 322.296 48.8281C320.447 53.151 317.947 56.888 314.796 60.0391C311.671 63.1641 307.934 65.651 303.585 67.5C299.262 69.375 294.717 70.3125 289.952 70.3125C285.186 70.3125 280.629 69.375 276.28 67.5C271.957 65.651 268.22 63.1641 265.069 60.0391C261.944 56.888 259.444 53.151 257.569 48.8281ZM350.203 50.625V19.6875C350.203 19.6875 356.597 19.6875 369.383 19.6875C372.482 19.6875 375.138 21.2109 377.352 24.2578C379.591 27.2786 380.711 30.9115 380.711 35.1562C380.711 39.4271 379.591 43.0729 377.352 46.0938C375.138 49.1146 372.482 50.625 369.383 50.625H350.203ZM353.016 47.8125H369.383C371.701 47.8125 373.68 46.5755 375.32 44.1016C376.987 41.6276 377.82 38.6458 377.82 35.1562C377.82 31.6406 376.987 28.6589 375.32 26.2109C373.68 23.737 371.701 22.5 369.383 22.5H353.016V47.8125ZM347.391 53.4375H369.383C373.263 53.4375 376.597 51.6536 379.383 48.0859C382.195 44.4922 383.602 40.1823 383.602 35.1562C383.602 31.849 382.951 28.7891 381.649 25.9766C380.373 23.1641 378.641 20.9505 376.453 19.3359C374.292 17.6953 371.935 16.875 369.383 16.875H347.391V53.4375ZM344.578 56.25V14.0625H369.383C372.43 14.0625 375.268 15 377.899 16.875C380.529 18.75 382.612 21.3151 384.149 24.5703C385.711 27.7995 386.492 31.3281 386.492 35.1562C386.492 38.9583 385.711 42.487 384.149 45.7422C382.612 48.9974 380.529 51.5625 377.899 53.4375C375.268 55.3125 372.43 56.25 369.383 56.25H344.578ZM341.766 59.0625H369.383C372.951 59.0625 376.258 57.9948 379.305 55.8594C382.378 53.724 384.826 50.8203 386.649 47.1484C388.472 43.4766 389.383 39.4792 389.383 35.1562C389.383 30.8594 388.472 26.875 386.649 23.2031C384.826 19.5052 382.378 16.5885 379.305 14.4531C376.232 12.3177 372.925 11.25 369.383 11.25H341.766V59.0625ZM338.953 61.875V8.4375H369.383C373.445 8.4375 377.235 9.63542 380.75 12.0312C384.266 14.401 387.065 17.6432 389.149 21.7578C391.232 25.8724 392.274 30.3385 392.274 35.1562C392.274 39.974 391.232 44.4401 389.149 48.5547C387.065 52.6693 384.266 55.9245 380.75 58.3203C377.235 60.6901 373.445 61.875 369.383 61.875H338.953ZM336.141 64.6875H369.383C372.794 64.6875 376.089 63.9062 379.266 62.3438C382.443 60.7812 385.19 58.6849 387.508 56.0547C389.826 53.4245 391.675 50.2865 393.055 46.6406C394.461 42.9688 395.164 39.1406 395.164 35.1562C395.164 31.1719 394.461 27.3568 393.055 23.7109C391.675 20.0651 389.826 16.9271 387.508 14.2969C385.19 11.6406 382.443 9.53125 379.266 7.96875C376.089 6.40625 372.794 5.625 369.383 5.625H336.141V64.6875ZM369.383 67.5H333.328V2.8125H369.383C374.461 2.8125 379.201 4.25781 383.602 7.14844C388.003 10.0391 391.505 13.9714 394.11 18.9453C396.74 23.9193 398.055 29.3229 398.055 35.1562C398.055 39.5312 397.274 43.724 395.711 47.7344C394.175 51.7188 392.117 55.1562 389.539 58.0469C386.961 60.9375 383.901 63.2422 380.36 64.9609C376.844 66.6536 373.185 67.5 369.383 67.5ZM420.728 67.5H417.916V2.8125H420.728V67.5ZM415.103 67.5H412.291V2.8125H415.103V67.5ZM409.478 67.5H406.666V2.8125H409.478V67.5ZM426.353 53.4375H456.275V56.25H426.353V59.0625H456.275V61.875H426.353V64.6875H456.275V67.5H423.541V2.8125H456.275V5.625H426.353V8.4375H456.275V11.25H426.353V14.0625H456.275V16.875H426.353V28.125H441.705V30.9375H426.353V33.75H441.705V36.5625H426.353V39.375H441.705V42.1875H426.353V53.4375Z" fill="#0031FF"/>
</svg>
