<svg width="200" height="200" viewBox="0 0 200 200" fill="none" xmlns="http://www.w3.org/2000/svg">
<rect width="200" height="200" rx="48" fill="url(#paint0_linear_37_2930)"/>
<path d="M138.726 78.3546L134.009 81.2317C131.35 76.9655 127.8 73.5528 123.359 70.9937C118.972 68.3844 114.15 66.984 108.893 66.7926C100.357 66.4818 92.9601 69.2353 86.7026 75.0531C80.4451 80.871 77.1609 88.0479 76.8501 96.5839C76.5393 105.12 79.2928 112.517 85.1106 118.774C90.9285 125.032 98.1054 128.316 106.641 128.627C111.898 128.818 116.809 127.772 121.375 125.489C125.992 123.207 129.782 120.036 132.744 115.974L137.153 119.418C133.644 124.19 129.182 127.91 123.769 130.579C118.356 133.249 112.578 134.472 106.437 134.248C101.492 134.068 96.7907 132.933 92.3326 130.842C87.9265 128.753 84.1436 126.009 80.9839 122.611C77.8242 119.212 75.363 115.24 73.6002 110.694C71.8393 106.095 71.0488 101.324 71.2289 96.3792C71.4089 91.4346 72.5433 86.7592 74.6321 82.3531C76.7228 77.895 79.4674 74.0861 82.8659 70.9264C86.2643 67.7667 90.2367 65.3055 94.7831 63.5427C99.3814 61.7817 104.153 60.9913 109.098 61.1714C115.291 61.3969 120.99 63.0637 126.193 66.1717C131.397 69.2277 135.575 73.2887 138.726 78.3546ZM148.25 72.2909L143.455 75.1652C139.808 69.4037 134.973 64.7715 128.951 61.2688C122.983 57.716 116.433 55.8097 109.302 55.5501C101.651 55.2715 94.5293 56.9145 87.9369 60.479C81.3464 63.9915 76.0338 68.9056 71.9993 75.2214C68.0167 81.539 65.8862 88.5233 65.6076 96.1745C65.329 103.826 66.9459 110.947 70.4585 117.537C74.023 124.129 78.9632 129.443 85.2789 133.478C91.5965 137.46 98.5809 139.591 106.232 139.869C113.363 140.129 120.06 138.705 126.323 135.597C132.586 132.49 137.746 128.17 141.805 122.637L146.294 126.005C141.687 132.3 135.828 137.194 128.717 140.688C121.658 144.183 114.095 145.784 106.027 145.49C97.3872 145.176 89.4754 142.751 82.292 138.216C75.1085 133.68 69.5164 127.666 65.5156 120.171C61.5148 112.677 59.6717 104.61 59.9863 95.9698C60.3009 87.3297 62.7258 79.4179 67.2611 72.2345C71.7963 65.051 77.811 59.4589 85.3053 55.4581C92.7996 51.4573 100.867 49.6142 109.507 49.9288C117.575 50.2226 125.001 52.3692 131.787 56.3688C138.625 60.3703 144.113 65.6776 148.25 72.2909ZM157.846 66.3862L153.051 69.2605C148.42 61.8996 142.277 55.995 134.621 51.5468C127.019 47.0485 118.716 44.6354 109.712 44.3075C102.477 44.0441 95.5032 45.1974 88.7906 47.7673C82.0781 50.3372 76.2404 53.9293 71.2775 58.5434C66.3686 63.1074 62.3885 68.6433 59.3372 75.1512C56.2858 81.659 54.6285 88.5304 54.365 95.7652C54.1016 103 55.2549 109.974 57.8248 116.686C60.3948 123.399 63.9608 129.235 68.5229 134.196C73.1389 139.107 78.7008 143.088 85.2087 146.14C91.7166 149.191 98.5879 150.848 105.823 151.112C114.879 151.442 123.362 149.64 131.271 145.706C139.179 141.772 145.711 136.303 150.865 129.299L155.271 132.821C149.57 140.535 142.341 146.552 133.584 150.872C124.881 155.141 115.559 157.095 105.618 156.733C94.948 156.345 85.1804 153.357 76.3153 147.77C67.4522 142.131 60.531 134.687 55.5517 125.437C50.6246 116.189 48.3552 106.23 48.7438 95.5605C49.1323 84.8905 52.1199 75.1229 57.7066 66.2578C63.3453 57.3946 70.7887 50.4995 80.0366 45.5723C89.2864 40.5931 99.2463 38.2977 109.916 38.6863C119.91 39.0501 129.115 41.7306 137.533 46.7277C145.952 51.6728 152.723 58.2256 157.846 66.3862ZM167.292 60.3196L162.497 63.1939C156.88 54.2857 149.453 47.1357 140.216 41.7439C131.031 36.3541 120.999 33.4611 110.121 33.065C101.377 32.7466 92.9344 34.1591 84.7938 37.3024C76.7071 40.3956 69.6699 44.7258 63.6821 50.2928C57.6943 55.8599 52.8369 62.5886 49.1098 70.4791C45.4366 78.3193 43.4409 86.6116 43.1225 95.3558C42.8041 104.1 44.1906 112.541 47.2819 120.68C50.4271 128.769 54.7833 135.807 60.3503 141.795C65.9174 147.782 72.6201 152.639 80.4585 156.364C88.3508 160.039 96.6691 162.036 105.413 162.354C116.292 162.75 126.534 160.57 136.14 155.812C145.747 151.054 153.675 144.437 159.925 135.961L164.329 139.561C157.533 148.695 148.935 155.835 138.532 160.98C128.132 166.074 117.024 168.406 105.209 167.976C95.6837 167.629 86.6434 165.423 78.0877 161.359C69.5821 157.349 62.2941 152.107 56.2236 145.631C50.2071 139.106 45.4823 131.455 42.0494 122.679C38.6705 113.852 37.1544 104.676 37.5012 95.1511C37.848 85.6262 40.0265 76.6109 44.0366 68.1054C48.1006 59.5497 53.3692 52.2626 59.8425 46.2442C66.3697 40.1756 74.0207 35.4509 82.7953 32.07C91.624 28.639 100.801 27.0969 110.326 27.4437C122.193 27.8758 133.127 31.0362 143.127 36.9248C153.128 42.8135 161.183 50.6117 167.292 60.3196Z" fill="#EFEFEF"/>
<defs>
<linearGradient id="paint0_linear_37_2930" x1="57" y1="56" x2="143" y2="144" gradientUnits="userSpaceOnUse">
<stop stop-color="#060606" stop-opacity="0.63"/>
<stop offset="1" stop-color="#141414" stop-opacity="0.63"/>
</linearGradient>
</defs>
</svg>
