<svg width="200" height="200" viewBox="0 0 200 200" fill="none" xmlns="http://www.w3.org/2000/svg">
<rect width="200" height="200" rx="48" fill="url(#paint0_linear_381_1749)"/>
<path d="M43.7011 115.076L39.1461 109.093L96.5305 92.8965L90.9308 101.824L43.7011 115.076ZM34.591 103.11L29.9768 97.0494L107.419 75.2783L101.975 84.0874L34.591 103.11ZM25.3626 90.9888L20.8075 85.006L117.45 57.8226L112.727 66.4507L25.3626 90.9888ZM91.9139 178.401L87.3588 172.418L153.772 62.3258L158.327 68.3087L91.9139 178.401ZM101.083 190.444L96.469 184.384L162.941 74.3693L167.496 80.3521L101.083 190.444ZM82.7446 166.357L78.1304 160.297L144.603 50.2824L149.158 56.2653L82.7446 166.357ZM73.5753 154.314L69.0202 148.331L130.204 47.0075L16.2524 79.0231L11.6973 73.0402L135.433 38.239L140.048 44.2995L73.5753 154.314Z" fill="#464E3B"/>
<defs>
<linearGradient id="paint0_linear_381_1749" x1="57" y1="56" x2="143" y2="144" gradientUnits="userSpaceOnUse">
<stop stop-color="#B0FF4E"/>
<stop offset="1" stop-color="#81C72D"/>
</linearGradient>
</defs>
</svg>
